<svg width="32" height="32" viewBox="0 0 32 32" fill="none" xmlns="http://www.w3.org/2000/svg">
<path d="M16.0066 2.66663C19.5799 2.66663 22.5176 5.47451 22.6667 9.03239H22.6318C22.636 9.13581 22.6161 9.2388 22.5738 9.33329H22.7819C24.4046 9.33329 26.1038 10.458 26.7851 13.173L26.8592 13.4934L27.8843 21.7529C28.6221 27.021 25.7399 29.2363 21.8083 29.3302L21.5446 29.3333H10.4914C6.4957 29.3333 3.41673 27.8773 4.09371 22.1114L4.13987 21.7529L5.17685 13.4934C5.68819 10.5695 7.40481 9.41629 9.05883 9.33765L9.24228 9.33329H9.34652C9.32894 9.23376 9.32894 9.13193 9.34652 9.03239C9.49563 5.47451 12.4333 2.66663 16.0066 2.66663ZM12.1293 13.7723C11.4785 13.7723 10.9509 14.3154 10.9509 14.9852C10.9509 15.655 11.4785 16.1981 12.1293 16.1981C12.7801 16.1981 13.3077 15.655 13.3077 14.9852L13.2985 14.8331C13.2258 14.235 12.7301 13.7723 12.1293 13.7723ZM19.8478 13.7723C19.197 13.7723 18.6694 14.3154 18.6694 14.9852C18.6694 15.655 19.197 16.1981 19.8478 16.1981C20.4986 16.1981 21.0261 15.655 21.0261 14.9852C21.0261 14.3154 20.4986 13.7723 19.8478 13.7723ZM15.9543 4.40314C13.3889 4.40314 11.3091 6.47573 11.3091 9.03239C11.3267 9.13193 11.3267 9.23376 11.3091 9.33329H20.6576C20.6205 9.23722 20.6008 9.13533 20.5995 9.03239C20.5995 6.47573 18.5198 4.40314 15.9543 4.40314Z" fill="white"/>
</svg>
